<svg width="141" height="136" viewBox="0 0 141 136" fill="none" xmlns="http://www.w3.org/2000/svg">
<line x1="36.7238" y1="134.771" x2="104.276" y2="134.771" stroke="#6B6C6E" stroke-width="2.1" stroke-linecap="round"/>
<rect x="1.55" y="16.5476" width="137.9" height="98.3726" rx="4.2" stroke="#6B6C6E" stroke-width="2.1"/>
<rect x="10.257" y="25.2541" width="120.487" height="80.9597" rx="4.2" stroke="#6B6C6E" stroke-width="2.1"/>
<line x1="19.3117" y1="76.5975" x2="95.7937" y2="76.5975" stroke="#6B6C6E" stroke-width="2.1" stroke-linecap="round"/>
<line x1="19.3117" y1="85.5225" x2="50.4617" y2="85.5225" stroke="#6B6C6E" stroke-width="2.1" stroke-linecap="round"/>
<line x1="19.3117" y1="94.4476" x2="80.2117" y2="94.4476" stroke="#6B6C6E" stroke-width="2.1" stroke-linecap="round"/>
<line x1="55.966" y1="114.927" x2="55.966" y2="133.555" stroke="#6B6C6E" stroke-width="2.1" stroke-linecap="round"/>
<line x1="82.5207" y1="121.877" x2="82.5207" y2="134.267" stroke="#6B6C6E" stroke-width="2.1" stroke-linecap="round"/>
<rect width="35.1741" height="2.08955" transform="matrix(-1 0 0 -1 104.803 17.5872)" fill="white"/>
<path d="M104.803 17.5872H103.753C103.173 17.5872 102.703 17.1171 102.703 16.5372C102.703 15.9573 103.173 15.4872 103.753 15.4872H104.803V17.5872Z" fill="#6B6C6E"/>
<rect width="30.6468" height="2.08955" transform="matrix(-1 0 0 -1 97.6641 26.2935)" fill="white"/>
<path d="M97.6641 26.2935H96.6141C96.0342 26.2935 95.5641 25.8234 95.5641 25.2435C95.5641 24.6636 96.0342 24.1935 96.6141 24.1935H97.6641V26.2935Z" fill="#6B6C6E"/>
<rect x="22.184" y="0.7875" width="48.0519" height="58.1514" rx="4.4625" fill="white" stroke="#6B6C6E" stroke-width="1.575"/>
<rect x="22.184" y="0.7875" width="48.0519" height="58.1514" rx="4.4625" fill="white" stroke="#6B6C6E" stroke-width="1.575"/>
<rect width="11.8408" height="14.801" transform="translate(60.5742 11.1443)" fill="white"/>
<path d="M27.8379 13.7053C27.8379 9.83932 30.9719 6.70532 34.8379 6.70532H64.8583C65.5829 6.70532 66.2791 6.98683 66.8001 7.49045C67.8299 8.48598 67.9401 10.0991 67.0552 11.2254L66.875 11.4547C66.7506 11.6131 66.6418 11.7832 66.5501 11.9625L66.4123 12.2323C64.028 16.9002 68.1569 22.2399 73.2862 21.1612C77.1796 20.3424 80.8629 23.3083 80.8629 27.2869V60.6928C80.8629 64.5588 77.7289 67.6928 73.8629 67.6928H34.8379C30.9719 67.6928 27.8379 64.5588 27.8379 60.6928V13.7053Z" fill="white"/>
<path d="M51.1767 44.9992H67.4109C67.9709 44.9992 68.4254 44.5446 68.4254 43.9846C68.4254 43.4245 67.9709 42.97 67.4109 42.97H51.1767C50.6167 42.97 50.1621 43.4245 50.1621 43.9846C50.1621 44.5446 50.6167 44.9992 51.1767 44.9992Z" fill="#6B6C6E"/>
<path d="M65.3778 36.8823H59.29C58.73 36.8823 58.2754 37.3369 58.2754 37.8969C58.2754 38.457 58.73 38.9115 59.29 38.9115H65.3778C65.9378 38.9115 66.3924 38.457 66.3924 37.8969C66.3924 37.3369 65.9378 36.8823 65.3778 36.8823Z" fill="#6B6C6E"/>
<path d="M39.0009 24.7062H49.1473C49.7073 24.7062 50.1619 24.2516 50.1619 23.6916C50.1619 23.1316 49.7073 22.677 49.1473 22.677H39.0009C38.4409 22.677 37.9863 23.1316 37.9863 23.6916C37.9863 24.2516 38.4409 24.7062 39.0009 24.7062Z" fill="#6B6C6E"/>
<path d="M39.0009 38.9115H47.1181C47.6781 38.9115 48.1327 38.457 48.1327 37.8969C48.1327 37.3369 47.6781 36.8823 47.1181 36.8823H39.0009C38.4409 36.8823 37.9863 37.3369 37.9863 37.8969C37.9863 38.457 38.4409 38.9115 39.0009 38.9115Z" fill="#6B6C6E"/>
<path d="M79.5844 20.6478H69.438C67.7598 20.6478 66.3941 19.2821 66.3941 17.6039V12.5307C66.3941 11.9707 65.9396 11.5161 65.3795 11.5161C64.8195 11.5161 64.3649 11.9707 64.3649 12.5307V17.6039C64.3649 20.4012 66.6407 22.6771 69.4382 22.6771H78.5699V62.248C78.5699 63.9262 77.2042 65.2919 75.526 65.2919H32.9111C31.2329 65.2919 29.8672 63.9262 29.8672 62.248V11.5161C29.8672 9.8379 31.2329 8.47218 32.9111 8.47218H64.9595L74.8085 18.3213C75.2053 18.718 75.8465 18.718 76.2432 18.3213C76.6399 17.9246 76.6399 17.2832 76.2432 16.8866L66.0969 6.74013C65.9071 6.54941 65.6484 6.44287 65.3795 6.44287H32.9111C30.1138 6.44287 27.8379 8.71867 27.8379 11.5161V62.248C27.8379 65.0453 30.1138 67.3211 32.9111 67.3211H75.5259C78.3232 67.3211 80.5991 65.0453 80.5991 62.2479V21.6624C80.5991 21.1024 80.1445 20.6478 79.5844 20.6478Z" fill="#6B6C6E"/>
<path d="M39.0009 32.8239H57.2644C57.8244 32.8239 58.279 32.3693 58.279 31.8093C58.279 31.2492 57.8244 30.7947 57.2644 30.7947H39.0009C38.4409 30.7947 37.9863 31.2492 37.9863 31.8093C37.9863 32.3693 38.4409 32.8239 39.0009 32.8239Z" fill="#6B6C6E"/>
<path d="M51.1767 38.9115H55.2352C55.7952 38.9115 56.2498 38.457 56.2498 37.8969C56.2498 37.3369 55.7952 36.8823 55.2352 36.8823H51.1767C50.6167 36.8823 50.1621 37.3369 50.1621 37.8969C50.1621 38.457 50.6167 38.9115 51.1767 38.9115Z" fill="#6B6C6E"/>
<path d="M55.2333 57.1745H65.3797C65.9397 57.1745 66.3943 56.7199 66.3943 56.1599C66.3943 55.5998 65.9397 55.1453 65.3797 55.1453H55.2333C54.6733 55.1453 54.2188 55.5998 54.2188 56.1599C54.2188 56.7199 54.6733 57.1745 55.2333 57.1745Z" fill="#6B6C6E"/>
<path d="M70.4529 50.0722C70.4529 49.5122 69.9984 49.0576 69.4384 49.0576H63.3505C62.7905 49.0576 62.3359 49.5122 62.3359 50.0722C62.3359 50.6322 62.7905 51.0868 63.3505 51.0868H69.4384C69.9984 51.0869 70.4529 50.6324 70.4529 50.0722Z" fill="#6B6C6E"/>
<path d="M69.4384 30.7947H61.3212C60.7612 30.7947 60.3066 31.2492 60.3066 31.8093C60.3066 32.3693 60.7612 32.8239 61.3212 32.8239H69.4384C69.9984 32.8239 70.453 32.3693 70.453 31.8093C70.453 31.2492 69.9984 30.7947 69.4384 30.7947Z" fill="#6B6C6E"/>
<path d="M39.0009 57.1745H51.1766C51.7366 57.1745 52.1912 56.7199 52.1912 56.1599C52.1912 55.5998 51.7366 55.1453 51.1766 55.1453H39.0009C38.4409 55.1453 37.9863 55.5998 37.9863 56.1599C37.9863 56.7199 38.4409 57.1745 39.0009 57.1745Z" fill="#6B6C6E"/>
<path d="M39.0009 51.0868H45.0887C45.6488 51.0868 46.1033 50.6322 46.1033 50.0722C46.1033 49.5122 45.6488 49.0576 45.0887 49.0576H39.0009C38.4409 49.0576 37.9863 49.5122 37.9863 50.0722C37.9863 50.6322 38.4409 51.0868 39.0009 51.0868Z" fill="#6B6C6E"/>
<path d="M60.3064 50.0722C60.3064 49.5122 59.8518 49.0576 59.2918 49.0576H49.1455C48.5854 49.0576 48.1309 49.5122 48.1309 50.0722C48.1309 50.6322 48.5854 51.0868 49.1455 51.0868H59.2918C59.8518 51.0869 60.3064 50.6324 60.3064 50.0722Z" fill="#6B6C6E"/>
<path d="M39.0009 44.9992H47.1181C47.6781 44.9992 48.1327 44.5446 48.1327 43.9846C48.1327 43.4245 47.6781 42.97 47.1181 42.97H39.0009C38.4409 42.97 37.9863 43.4245 37.9863 43.9846C37.9863 44.5446 38.4409 44.9992 39.0009 44.9992Z" fill="#6B6C6E"/>
<rect x="78.7637" y="19.918" width="2.1" height="4.725" fill="white"/>
<rect x="78.7637" y="35.4929" width="2.1" height="4.725" fill="white"/>
<path d="M94.2691 5.66257L101.603 11.5757L75.222 43.6863L71.5152 44.2727L69.5204 44.4473L67.8302 43.1094L67.646 37.0077L94.2691 5.66257Z" fill="white"/>
<path d="M67.5407 44.7942C67.3433 44.6285 67.228 44.384 67.23 44.1243L67.2531 37.3244C67.2538 37.1204 67.3255 36.9237 67.4565 36.7677L87.6036 12.7573C88.5292 11.6542 90.1802 11.5097 91.2834 12.4354L95.2851 15.7932C95.6519 16.101 96.2039 16.0527 96.5117 15.6859L99.6725 11.919C99.9546 11.5828 100.342 10.9445 99.7622 10.4576L95.7605 7.09975C95.1802 6.61286 94.619 7.10568 94.3369 7.44183L93.4146 8.54097C93.1057 8.90913 92.5562 8.9572 92.188 8.64828C91.8199 8.33936 91.7718 7.78984 92.0807 7.42168L93.003 6.32254C94.1077 5.00598 95.7019 4.77751 96.8798 5.76584L100.881 9.12368C102.059 10.112 102.111 11.7217 101.006 13.0382L97.8456 16.8052C96.9199 17.9083 95.2689 18.0528 94.1658 17.1271L90.1641 13.7693C89.7973 13.4615 89.2453 13.5098 88.9375 13.8766L68.993 37.6455L68.9757 43.0841L74.3286 42.1226L92.0346 21.0215C92.3435 20.6534 92.893 20.6053 93.2611 20.9142C93.6293 21.2232 93.6774 21.7727 93.3685 22.1408L75.4599 43.4834C75.329 43.6394 75.1478 43.7443 74.947 43.7804L68.2544 44.9839C67.999 45.031 67.7382 44.9598 67.5407 44.7942Z" fill="#6B6C6E"/>
<path d="M67.5407 44.7942C67.3433 44.6285 67.228 44.384 67.23 44.1243L67.2531 37.3244C67.2538 37.1204 67.3255 36.9237 67.4565 36.7677L87.6036 12.7573C88.5292 11.6542 90.1802 11.5097 91.2834 12.4354L95.2851 15.7932C95.6519 16.101 96.2039 16.0527 96.5117 15.6859L99.6725 11.919C99.9546 11.5828 100.342 10.9445 99.7622 10.4576L95.7605 7.09975C95.1802 6.61286 94.619 7.10568 94.3369 7.44183L93.4146 8.54097C93.1057 8.90913 92.5562 8.9572 92.188 8.64828C91.8199 8.33936 91.7718 7.78984 92.0807 7.42168L93.003 6.32254C94.1077 5.00598 95.7019 4.77751 96.8798 5.76584L100.881 9.12368C102.059 10.112 102.111 11.7217 101.006 13.0382L97.8456 16.8052C96.9199 17.9083 95.2689 18.0528 94.1658 17.1271L90.1641 13.7693C89.7973 13.4615 89.2453 13.5098 88.9375 13.8766L68.993 37.6455L68.9757 43.0841L74.3286 42.1226L92.0346 21.0215C92.3435 20.6534 92.893 20.6053 93.2611 20.9142C93.6293 21.2232 93.6774 21.7727 93.3685 22.1408L75.4599 43.4834C75.329 43.6394 75.1478 43.7443 74.947 43.7804L68.2544 44.9839C67.999 45.031 67.7382 44.9598 67.5407 44.7942Z" fill="#6B6C6E"/>
</svg>
