<svg width="492" height="513" viewBox="0 0 492 513" fill="none" xmlns="http://www.w3.org/2000/svg">
<g clip-path="url(#clip0_242_716)">
<path d="M492 0H0V513H492V0Z" fill="white" fill-opacity="0.2"/>
<path d="M246 0H0V256.5H246V0Z" fill="white" fill-opacity="0.2"/>
<path d="M123 0H0V128.25H123V0Z" fill="white" fill-opacity="0.2"/>
<path d="M0 0C32.6216 0 63.9072 13.512 86.9741 37.5636C110.041 61.6151 123 94.236 123 128.25L0 0C0 34.014 12.9589 66.6349 36.0259 90.6864C59.0928 114.738 90.3784 128.25 123 128.25" fill="#C6B6A2" fill-opacity="0.7"/>
<path d="M246 0H123V128.25H246V0Z" fill="#C6B6A2" fill-opacity="0.7"/>
<path d="M123 0C155.622 0 186.907 13.512 209.974 37.5636C233.041 61.6151 246 94.236 246 128.25H123V0Z" fill="white" fill-opacity="0.2"/>
<path d="M123 128.25H0V256.5H123V128.25Z" fill="#C6B6A2" fill-opacity="0.7"/>
<path d="M0 256.5C0 222.486 12.9589 189.865 36.0259 165.814C59.0928 141.762 90.3784 128.25 123 128.25L0 256.5C32.6216 256.5 63.9072 242.988 86.9741 218.936C110.041 194.885 123 162.264 123 128.25" fill="white" fill-opacity="0.2"/>
<path d="M246 128.25H123V256.5H246V128.25Z" fill="white" fill-opacity="0.2"/>
<path d="M123 128.25C155.622 128.25 186.907 141.762 209.974 165.814C233.041 189.865 246 222.486 246 256.5L123 128.25C123 162.264 135.959 194.885 159.026 218.936C182.093 242.988 213.378 256.5 246 256.5" fill="#C6B6A2" fill-opacity="0.7"/>
<path d="M492 0H246V256.5H492V0Z" fill="white" fill-opacity="0.2"/>
<path d="M246 0C311.243 0 373.814 27.024 419.948 75.1271C466.082 123.23 492 188.472 492 256.5L246 0C246 68.028 271.918 133.27 318.052 181.373C364.186 229.476 426.757 256.5 492 256.5" fill="white" fill-opacity="0.2"/>
<path d="M246 256.5H0V513H246V256.5Z" fill="white" fill-opacity="0.2"/>
<path d="M123 256.5H0V384.75H123V256.5Z" fill="#C6B6A2" fill-opacity="0.7"/>
<path d="M0 256.5C32.6216 256.5 63.9072 270.012 86.9741 294.064C110.041 318.115 123 350.736 123 384.75H0V256.5Z" fill="white" fill-opacity="0.2"/>
<path d="M246 256.5H123V384.75H246V256.5Z" fill="white" fill-opacity="0.2"/>
<path d="M123 256.5C155.622 256.5 186.907 270.012 209.974 294.064C233.041 318.115 246 350.736 246 384.75L123 256.5C123 290.514 135.959 323.135 159.026 347.186C182.093 371.238 213.378 384.75 246 384.75" fill="white" fill-opacity="0.2"/>
<path d="M123 384.75H0V513H123V384.75Z" fill="#C6B6A2" fill-opacity="0.7"/>
<path d="M0 513C0 478.986 12.9589 446.365 36.0259 422.314C59.0928 398.262 90.3784 384.75 123 384.75L0 513C32.6216 513 63.9072 499.488 86.9741 475.436C110.041 451.385 123 418.764 123 384.75" fill="white" fill-opacity="0.2"/>
<path d="M246 384.75H123V513H246V384.75Z" fill="white" fill-opacity="0.2"/>
<path d="M123 513C123 478.986 135.959 446.365 159.026 422.314C182.093 398.262 213.378 384.75 246 384.75V513H123Z" fill="white" fill-opacity="0.2"/>
<path d="M492 256.5H246V513H492V256.5Z" fill="#C6B6A2" fill-opacity="0.7"/>
<path d="M246 513C246 444.972 271.918 379.73 318.052 331.627C364.186 283.524 426.757 256.5 492 256.5L246 513C311.243 513 373.814 485.976 419.948 437.873C466.082 389.77 492 324.528 492 256.5" fill="white" fill-opacity="0.2"/>
</g>
<defs>
<clipPath id="clip0_242_716">
<rect width="492" height="513" fill="white"/>
</clipPath>
</defs>
</svg>
