<svg width="207" height="138" viewBox="0 0 207 138" fill="none" xmlns="http://www.w3.org/2000/svg">
<path fill-rule="evenodd" clip-rule="evenodd" d="M130.477 93.1539C134.348 93.1539 151.068 89.9858 166.204 75.2015C167.612 73.7935 159.34 72.0335 160.572 70.4494C161.98 68.8654 173.068 67.6334 174.3 66.0493C179.227 59.8892 183.627 53.7291 187.323 47.745C188.379 46.1609 177.116 48.977 177.996 47.393C178.875 45.8089 191.899 40.0008 192.603 38.5928C202.987 19.7604 207.035 4.44807 204.747 2.33602C202.987 0.575987 188.731 6.0321 181.867 11.6642C180.459 12.7202 171.308 29.6166 169.548 30.3206C168.14 30.8486 169.02 20.6404 174.124 15.8883C167.436 19.0564 158.108 24.1605 151.772 29.9686C151.244 30.4966 150.012 44.5769 149.484 45.2809C148.252 46.5129 147.9 34.0167 146.844 35.4247C131.005 54.7851 119.741 81.5377 126.077 91.2179C126.605 91.0419 127.661 93.1539 130.477 93.1539Z" stroke="#6B6C6E" stroke-width="3"/>
<path d="M117.623 111.108C119.383 109.348 145.43 56.5464 188.725 23.1057" stroke="#6B6C6E" stroke-width="3" stroke-linecap="round"/>
<line x1="2.13477" y1="136.5" x2="203.866" y2="136.5" stroke="#6B6C6E" stroke-width="3" stroke-linecap="round"/>
<line x1="2.13477" y1="114.564" x2="107.35" y2="114.564" stroke="#6B6C6E" stroke-width="3" stroke-linecap="round"/>
</svg>
