<svg width="142" height="138" viewBox="0 0 142 138" fill="none" xmlns="http://www.w3.org/2000/svg">
<path fill-rule="evenodd" clip-rule="evenodd" d="M88.9396 64.5832C91.5873 64.5832 103.021 62.4168 113.371 52.3069C114.334 51.3441 108.677 50.1405 109.52 49.0573C110.482 47.9741 118.064 47.1317 118.907 46.0485C122.277 41.836 125.285 37.6236 127.813 33.5315C128.535 32.4483 120.832 34.374 121.434 33.2908C122.036 32.2076 130.942 28.2358 131.423 27.273C138.524 14.395 141.292 3.92405 139.727 2.47978C138.524 1.27623 128.776 5.00725 124.082 8.85862C123.119 9.58075 116.861 21.1349 115.657 21.6163C114.695 21.9774 115.296 14.9967 118.786 11.7472C114.213 13.9135 107.835 17.4039 103.502 21.3756C103.141 21.7367 102.299 31.3651 101.937 31.8465C101.095 32.689 100.854 24.1438 100.132 25.1066C89.3007 38.3457 81.5983 56.6397 85.9309 63.2593C86.2919 63.1389 87.014 64.5832 88.9396 64.5832Z" stroke="#6B6C6E" stroke-width="3"/>
<path d="M80.1504 76.8604C81.3539 75.6568 99.1657 39.5502 128.772 16.6826" stroke="#6B6C6E" stroke-width="3" stroke-linecap="round"/>
<line x1="1.65039" y1="93.75" x2="138.65" y2="93.75" stroke="#6B6C6E" stroke-width="3" stroke-linecap="round"/>
<line x1="1.65039" y1="78.75" x2="72.6504" y2="78.75" stroke="#6B6C6E" stroke-width="3" stroke-linecap="round"/>
</svg>
