<svg width="253" height="162" viewBox="0 0 253 162" fill="none" xmlns="http://www.w3.org/2000/svg">
<g clip-path="url(#clip0_133_534)">
<path d="M129.217 544.283C202.384 528.779 240.474 500.316 243.487 458.894C248.008 396.762 77.498 446.57 145.758 316.907C214.018 187.246 275.711 184.035 243.487 103.21C211.264 22.3852 124.737 -20.0459 24.2182 12.0474C-42.7953 33.4429 -79.4559 112.833 -85.7637 250.217" stroke="#D0D5F6" stroke-width="2"/>
<path d="M99.1213 544.283C156.518 530.667 186.398 505.67 188.762 469.292C192.308 414.725 58.5503 458.468 112.098 344.594C165.645 230.72 214.039 227.902 188.762 156.917C163.484 85.9336 95.608 48.6699 16.7544 76.855C-35.8144 95.6461 -64.5733 165.368 -69.5215 286.024" stroke="#D0D5F6" stroke-width="2"/>
<path d="M73.151 545.717C116.587 533.842 139.198 512.04 140.988 480.311C143.671 432.719 42.4484 470.871 82.9706 371.552C123.494 272.233 160.116 269.776 140.987 207.865C121.858 145.954 70.492 113.454 10.8191 138.036C-28.9629 154.425 -50.7259 215.236 -54.4707 320.469" stroke="#D0D5F6" stroke-width="2"/>
</g>
<defs>
<clipPath id="clip0_133_534">
<rect width="253" height="218" fill="white"/>
</clipPath>
</defs>
</svg>
