<svg width="128" height="420" viewBox="0 0 128 420" fill="none" xmlns="http://www.w3.org/2000/svg">
<g clip-path="url(#clip0_87_503)">
<path fill-rule="evenodd" clip-rule="evenodd" d="M-229.361 17.325C-305.064 -6.36804 -382.904 -45.887 -462.596 26.295C-542.289 98.477 -592.39 161.709 -560.036 243.522C-527.682 325.336 -395.614 274.377 -357.242 347.499C-318.869 420.621 -403.182 486.984 -366.833 552.062C-330.483 617.14 -302.533 658.849 -185.718 617.471C-68.9022 576.092 -79.6731 470.807 9.15985 409.153C97.9929 347.499 194.104 255.2 62.2058 90.506C-69.6922 -74.188 -153.659 41.02 -229.36 17.326L-229.361 17.325Z" stroke="#c6b6a2"/>
<path fill-rule="evenodd" clip-rule="evenodd" d="M-219.895 55.249C-281.478 36.009 -344.8 3.91898 -409.629 62.532C-474.457 121.146 -515.214 172.491 -488.895 238.925C-462.575 305.359 -355.14 263.98 -323.924 323.355C-292.708 382.732 -361.296 436.621 -331.726 489.465C-302.156 542.31 -279.42 576.178 -184.392 542.578C-89.3639 508.978 -98.1249 423.484 -25.8619 373.42C46.4031 323.356 124.588 248.408 17.2911 114.673C-90.0059 -19.062 -158.312 74.489 -219.895 55.249Z" stroke="#c6b6a2"/>
<path fill-rule="evenodd" clip-rule="evenodd" d="M-202.188 80.4169C-252.15 64.7199 -303.522 38.5349 -356.117 86.3599C-408.711 134.185 -441.777 176.08 -420.424 230.286C-399.071 284.492 -311.911 250.729 -286.586 299.176C-261.261 347.624 -316.906 391.594 -292.916 434.712C-268.926 477.829 -250.48 505.464 -173.385 478.048C-96.2901 450.633 -103.398 380.875 -44.7711 340.026C13.8559 299.176 77.2869 238.023 -9.76208 128.904C-96.8111 19.7839 -152.227 96.1159 -202.188 80.4169Z" stroke="#c6b6a2"/>
</g>
<defs>
<clipPath id="clip0_87_503">
<rect width="195" height="420" fill="white" transform="translate(-67)"/>
</clipPath>
</defs>
</svg>
