<svg width="415" height="311" viewBox="0 0 415 311" fill="none" xmlns="http://www.w3.org/2000/svg">
<g clip-path="url(#clip0_133_647)">
<path fill-rule="evenodd" clip-rule="evenodd" d="M341.639 -306.675C265.936 -330.368 188.096 -369.887 108.404 -297.705C28.7099 -225.523 -21.3901 -162.291 10.9639 -80.4778C43.3179 1.33622 175.386 -49.6228 213.758 23.4992C252.131 96.6212 167.818 162.984 204.167 228.062C240.517 293.14 268.467 334.849 385.282 293.471C502.098 252.092 491.327 146.807 580.16 85.1532C668.993 23.4992 765.104 -68.7998 633.206 -233.494C501.308 -398.188 417.341 -282.98 341.64 -306.674L341.639 -306.675Z" stroke="#c6b6a2"/>
<path fill-rule="evenodd" clip-rule="evenodd" d="M351.105 -268.751C289.522 -287.991 226.2 -320.081 161.371 -261.468C96.5431 -202.854 55.7861 -151.509 82.1051 -85.0748C108.425 -18.6408 215.86 -60.0198 247.076 -0.644775C278.292 58.7322 209.704 112.621 239.274 165.465C268.844 218.31 291.58 252.178 386.608 218.578C481.636 184.978 472.875 99.4842 545.138 49.4202C617.403 -0.643772 695.588 -75.5918 588.291 -209.327C480.994 -343.062 412.688 -249.511 351.105 -268.751Z" stroke="#c6b6a2"/>
<path fill-rule="evenodd" clip-rule="evenodd" d="M368.812 -243.583C318.85 -259.28 267.478 -285.465 214.883 -237.64C162.289 -189.815 129.223 -147.92 150.576 -93.7139C171.929 -39.5079 259.089 -73.2709 284.414 -24.8239C309.739 23.6241 254.094 67.5941 278.084 110.712C302.074 153.829 320.52 181.464 397.615 154.048C474.71 126.633 467.602 56.8751 526.229 16.0261C584.856 -24.8239 648.287 -85.9769 561.238 -195.096C474.189 -304.216 418.773 -227.884 368.812 -243.583Z" stroke="#c6b6a2"/>
<path fill-rule="evenodd" clip-rule="evenodd" d="M387.316 -212.816C347.021 -225.412 305.588 -246.419 263.169 -208.048C220.75 -169.677 194.082 -136.064 211.304 -92.5728C228.525 -49.0818 298.822 -76.1708 319.247 -37.2998C339.672 1.57018 294.794 36.8482 314.142 71.4432C333.49 106.038 348.367 128.21 410.546 106.213C472.725 84.2172 466.992 28.2482 514.276 -4.52582C561.56 -37.2998 612.718 -86.3648 542.512 -173.914C472.305 -261.464 427.611 -200.221 387.316 -212.816Z" stroke="#c6b6a2"/>
<path fill-rule="evenodd" clip-rule="evenodd" d="M392.083 -192.954C359.173 -203.249 325.334 -220.421 290.69 -189.057C256.047 -157.692 234.266 -130.217 248.332 -94.6679C262.397 -59.1189 319.809 -81.2609 336.49 -49.4889C353.172 -17.7169 316.519 11.1201 332.32 39.3971C348.123 67.6741 360.273 85.7971 411.055 67.8171C461.837 49.8381 457.155 4.09012 495.773 -22.6989C534.39 -49.4889 576.171 -89.5939 518.833 -161.156C461.494 -232.718 424.992 -182.659 392.083 -192.954Z" stroke="#c6b6a2"/>
<path fill-rule="evenodd" clip-rule="evenodd" d="M401.225 -178.594C374.507 -186.954 347.034 -200.899 318.907 -175.429C290.78 -149.959 273.097 -127.649 284.517 -98.7797C295.936 -69.9117 342.547 -87.8927 356.091 -62.0917C369.635 -36.2917 339.877 -12.8747 352.706 10.0883C365.536 33.0513 375.4 47.7683 416.629 33.1683C457.858 18.5683 454.057 -18.5817 485.409 -40.3367C516.762 -62.0917 550.684 -94.6597 504.132 -152.772C457.579 -210.884 427.944 -170.234 401.225 -178.594Z" stroke="#c6b6a2"/>
</g>
<defs>
<clipPath id="clip0_133_647">
<rect width="436" height="475" fill="white" transform="translate(0 -164)"/>
</clipPath>
</defs>
</svg>
