<svg width="173" height="136" viewBox="0 0 173 136" fill="none" xmlns="http://www.w3.org/2000/svg">
<path d="M18.9414 1.49512V1.49609C31.3979 2.72874 45.3267 7.43318 55.8398 13.9736C64.6253 19.4384 73.7032 27.8004 79.6797 35.8916L80.248 36.6729L81.5391 38.4775V86.998C81.5391 100.449 81.511 112.675 81.4648 121.537C81.4418 125.969 81.414 129.557 81.3838 132.036C81.3801 132.343 81.3749 132.632 81.3711 132.903C81.2601 132.776 81.1443 132.647 81.0303 132.514C74.4769 124.837 63.6068 116.689 53.0918 111.533C42.4728 106.326 32.3655 103.427 20.9014 102.308H20.9004C19.7889 102.2 18.7738 102.097 18.0352 102.017C17.9938 102.012 17.9535 102.006 17.9141 102.002C17.9132 101.314 17.9135 100.314 17.915 99.0352C17.9182 96.4158 17.9268 92.6277 17.9395 87.9541C17.9521 83.2804 17.9691 77.7214 17.9902 71.5605L18.0654 51.5557L18.25 1.42773L18.9414 1.49512ZM155.193 102.008L153.877 102.132C130.41 104.31 110.035 113.978 94.1045 130.513L91.8047 132.899V38.165L94.499 34.5742C98.1873 29.6584 105.664 22.1945 110.568 18.5342C123.753 8.69012 138.037 3.13326 154.458 1.45898L155.193 1.38379V102.008ZM165.464 24.7578C166.034 24.8927 167.081 25.1781 168.196 25.5098L169.496 25.9092L171.75 26.624V78.4492C171.75 92.9509 171.721 106.133 171.675 115.689C171.651 120.468 171.624 124.338 171.593 127.012C171.58 128.112 171.565 129.007 171.552 129.678C171.545 129.676 171.538 129.675 171.531 129.674C170.696 129.495 169.575 129.249 168.372 128.977L168.37 128.976L166.581 128.586C157.724 126.72 150.121 126.081 140.36 126.344H140.359C128.176 126.68 118.583 128.331 107.438 132.06C116.165 124.396 127.309 118.327 138.489 115.188C144.731 113.437 152.849 112.219 158.18 112.219C161.181 112.219 163.352 111.572 164.597 109.533L164.598 109.532C164.701 109.363 164.833 109.137 164.942 108.799C165.043 108.486 165.112 108.12 165.164 107.653C165.267 106.732 165.331 105.204 165.374 102.471C165.461 96.9768 165.463 86.3961 165.464 65.5088V24.7578ZM7.32227 24.9131C7.37669 26.2059 7.41839 28.3065 7.4502 31.4824C7.51373 37.8282 7.53516 48.4104 7.53516 65.2812C7.53516 88.3096 7.50974 99.2359 7.73242 104.553C7.84114 107.148 8.01047 108.616 8.37402 109.514C8.83063 110.64 9.71035 110.985 9.9707 111.155L9.97559 111.158C10.5611 111.539 11.3219 111.729 12.3008 111.869C13.3089 112.014 14.7307 112.128 16.7656 112.25H16.7695C32.7204 113.157 47.8403 118.5 60.1719 127.573C61.4327 128.501 63.5674 130.229 65.5039 131.854C60.5949 130.224 53.4777 128.447 48.5186 127.64H48.5176C41.1539 126.446 36.0567 126.129 27.0771 126.329C18.7055 126.506 13.3974 127.067 6.66504 128.519L5.29883 128.82C3.70822 129.178 2.11838 129.534 1.25 129.725L1.25195 78.3975V26.4551L4.32031 25.5654C5.43757 25.2415 6.50279 24.9273 7.30957 24.6885C7.31292 24.76 7.31897 24.8348 7.32227 24.9131ZM17.9189 103.035C17.9192 103.04 17.9189 103.043 17.9189 103.044L17.918 103.019C17.9185 103.026 17.9188 103.032 17.9189 103.035Z" fill="white" stroke="#6B6C6E" stroke-width="2.5"/>
</svg>
